PathFileType	4	(X/Y/Z)	/Users/itak/Documents/Research/Walk-IL/dataset/trc/00370_00011.trc
DataRate	CameraRate	NumFrames	NumMarkers	Units	OrigDataRate	OrigDataStartFrame	OrigNumFrames
100.000000	100.000000	4	57	mm	100.000000	387	516
Frame#	Time	RPSI			LPSI			L3			STRN			T10			C7			CLAV			RBAK			LBAK			LSHO			LUPA			LAEL			LAOL			LWTS			LWPS			LFRA			LIFD			LHPS			LHTS			RSHO			RUPA			RAEL			RAOL			RWPS			RFRA			RIFD			RHTS			RHPS			RBHD			LFHD			RFHD			LBHD			LHIP			RHIP			RASI			LASI			LKNE			LTHI			LANK			LTIP			LTOE			LMT1			LMT5			LHEE			RKNE			RTHI			RANK			RTIP			RTOE			RMT1			RMT5			RHEE			RWTS			*53			*54			*55			*56			
		X1	Y1	Z1	X2	Y2	Z2	X3	Y3	Z3	X4	Y4	Z4	X5	Y5	Z5	X6	Y6	Z6	X7	Y7	Z7	X8	Y8	Z8	X9	Y9	Z9	X10	Y10	Z10	X11	Y11	Z11	X12	Y12	Z12	X13	Y13	Z13	X14	Y14	Z14	X15	Y15	Z15	X16	Y16	Z16	X17	Y17	Z17	X18	Y18	Z18	X19	Y19	Z19	X20	Y20	Z20	X21	Y21	Z21	X22	Y22	Z22	X23	Y23	Z23	X24	Y24	Z24	X25	Y25	Z25	X26	Y26	Z26	X27	Y27	Z27	X28	Y28	Z28	X29	Y29	Z29	X30	Y30	Z30	X31	Y31	Z31	X32	Y32	Z32	X33	Y33	Z33	X34	Y34	Z34	X35	Y35	Z35	X36	Y36	Z36	X37	Y37	Z37	X38	Y38	Z38	X39	Y39	Z39	X40	Y40	Z40	X41	Y41	Z41	X42	Y42	Z42	X43	Y43	Z43	X44	Y44	Z44	X45	Y45	Z45	X46	Y46	Z46	X47	Y47	Z47	X48	Y48	Z48	X49	Y49	Z49	X50	Y50	Z50	X51	Y51	Z51	X52	Y52	Z52	X53	Y53	Z53	X54	Y54	Z54	X55	Y55	Z55	X56	Y56	Z56	X57	Y57	Z57	

388	3.87	25.97699165344238	949.978271484375	669.3526611328125	155.7825622558594	947.2599487304688	667.7650756835938	82.45875549316406	1010.197875976562	663.9195556640625	96.34519958496094	1198.768676757812	896.0313110351562	80.29994201660156	1129.952026367188	653.4487915039062	98.95169067382812	1378.68359375	697.4202880859375	99.11106872558594	1324.483642578125	852.76123046875	28.60050582885742	1238.9365234375	654.1115112304688	197.7904052734375	1342.037231445312	680.31005859375	259.0738525390625	1357.707153320312	762.0908203125	320.9421997070312	1238.7197265625	725.538818359375	329.1254577636719	1037.064331054688	707.0914306640625	259.0008239746094	1031.119506835938	659.580322265625	307.5370483398438	780.0052490234375	764.9556884765625	352.7974243164062	778.74267578125	712.3544921875	339.1930236816406	932.7809448242188	701.7274780273438	297.5458374023438	616.5489501953125	729.7964477539062	343.6971740722656	710.5067749023438	693.9431762695312	321.8795776367188	699.9451293945312	754.4563598632812	-61.72221374511719	1369.943115234375	757.43701171875	-126.3526840209961	1307.11572265625	750.3873901367188	-194.2200469970703	1048.10302734375	787.3251342773438	-112.121467590332	1026.212158203125	745.124267578125	-176.0612182617188	870.43505859375	969.67138671875	-196.453125	994.8067016601562	837.865234375	-98.17779541015625	765.7328491210938	1084.349975585938	-105.8633422851562	832.6941528320312	1057.696655273438	-160.1947784423828	806.567626953125	1024.675048828125	16.90575790405273	1593.857299804688	784.2100219726562	152.8857116699219	1569.2607421875	939.28125	51.94625854492188	1571.1787109375	941.1836547851562	157.9069213867188	1592.780029296875	754.5130004882812	256.1779174804688	891.2973022460938	752.000732421875	-82.43330383300781	898.6797485351562	752.1357421875	-38.67737197875977	928.350830078125	856.5233154296875	199.7302856445312	928.659423828125	875.1028442382812	272.6951904296875	463.021240234375	940.9280395507812	281.8507385253906	592.07568359375	888.3096923828125	285.1003723144531	43.52842330932617	1036.912231445312	295.9927368164062	255.4469146728516	986.3058471679688	248.9154205322266	120.1934051513672	1233.084716796875	198.8516845703125	90.08751678466797	1177.783325195312	311.183837890625	78.38493347167969	1155.246337890625	213.3903350830078	36.15466690063477	1012.92041015625	-19.67506980895996	433.8079223632812	781.7664794921875	-66.13618469238281	688.7517700195312	822.4937744140625	32.42166137695312	54.16540145874023	620.939453125	6.404356479644775	313.1892395019531	763.3651733398438	104.9215774536133	40.65947723388672	805.8528442382812	140.7904510498047	36.08784866333008	745.4456787109375	25.36778831481934	37.68084716796875	721.9401245117188	75.20757293701172	60.8378791809082	567.1092529296875	-107.4161376953125	904.34423828125	978.0440673828125	nan	nan	nan	nan	nan	nan	nan	nan	nan	nan	nan	nan	
389	3.88	28.74234771728516	949.0872802734375	676.5181274414062	158.5063934326172	946.0198974609375	675.69384765625	85.21430969238281	1008.813781738281	671.4153442382812	97.83284759521484	1197.842163085938	903.0807495117188	83.1800537109375	1128.598999023438	660.545654296875	101.6532440185547	1377.428833007812	704.1516723632812	100.9162826538086	1323.530029296875	859.6364135742188	31.48018264770508	1237.60595703125	660.5451049804688	200.5985565185547	1340.667358398438	687.6419067382812	261.4359741210938	1356.413818359375	769.828857421875	323.4487915039062	1237.313598632812	733.5228881835938	331.5284729003906	1035.601440429688	715.6077270507812	261.745361328125	1029.747802734375	667.5458984375	309.0433044433594	778.6056518554688	773.4638061523438	354.6869812011719	777.2608642578125	721.2086791992188	341.4387817382812	931.2606201171875	710.4400634765625	298.7944030761719	615.0835571289062	738.0750732421875	345.5553588867188	708.990966796875	702.7467041015625	323.2652282714844	698.6224365234375	763.0765991210938	-59.40088653564453	1368.66455078125	763.2816162109375	-123.8641204833984	1305.682983398438	755.9212646484375	-191.2851715087891	1046.636596679688	793.0569458007812	-109.1796417236328	1024.8623046875	750.8348388671875	-174.1828002929688	866.8370361328125	973.5759887695312	-193.7561950683594	992.8331298828125	843.20703125	-96.7650146484375	760.404052734375	1086.932006835938	-103.9431610107422	827.2814331054688	1060.718505859375	-158.9225921630859	802.4115600585938	1027.66650390625	19.14577674865723	1592.889892578125	789.9389038085938	154.6323852539062	1568.770629882812	945.5344848632812	53.67865753173828	1570.761108398438	947.1146240234375	160.259765625	1591.57373046875	760.6923217773438	258.37841796875	889.9796142578125	760.5618896484375	-80.34732055664062	898.0578002929688	758.5704956054688	-37.2735710144043	927.501953125	863.2916259765625	201.0349731445312	927.4055786132812	883.314453125	272.5184326171875	461.26806640625	948.7237548828125	282.6307983398438	590.5950317382812	896.7904052734375	282.988037109375	42.91594696044922	1047.751586914062	294.8449401855469	254.1952514648438	995.562744140625	245.8004455566406	120.2739181518555	1243.370727539062	196.0465850830078	90.27322387695312	1187.7958984375	308.4375	77.88461303710938	1166.14697265625	211.4004364013672	35.79893493652344	1023.292236328125	-19.08677101135254	433.1700744628906	785.9243774414062	-65.06033325195312	687.95361328125	827.9407958984375	32.84091567993164	54.94804763793945	621.1640014648438	6.722181797027588	312.6931762695312	766.2886962890625	104.9771728515625	40.61166763305664	805.982421875	140.9221038818359	36.34165954589844	745.5775756835938	25.42301177978516	37.84245681762695	722.0614013671875	75.70388793945312	62.15453720092773	567.4265747070312	-105.2964096069336	900.1707763671875	982.2750854492188	nan	nan	nan	nan	nan	nan	nan	nan	nan	nan	nan	nan	
390	3.89	31.52223777770996	948.2437133789062	683.7454833984375	161.2291107177734	944.8609619140625	683.6376953125	87.95981597900391	1007.48974609375	678.9197998046875	99.33989715576172	1196.982543945312	910.1650390625	86.05388641357422	1127.304077148438	667.6844482421875	104.3821868896484	1376.226196289062	710.9105834960938	102.7707901000977	1322.63720703125	866.554443359375	34.39070892333984	1236.336669921875	667.0314331054688	203.44287109375	1339.34619140625	694.9854736328125	263.835205078125	1355.183227539062	777.5609130859375	325.9700317382812	1235.941040039062	741.576904296875	333.9597473144531	1034.134521484375	724.3787841796875	264.5301513671875	1028.345947265625	675.7312622070312	310.5805358886719	777.2467041015625	782.2991943359375	356.6158142089844	775.8009643554688	730.4154663085938	343.7045593261719	929.7506713867188	719.4411010742188	300.2284545898438	613.7272338867188	746.790771484375	347.5193786621094	707.5192260742188	711.9430541992188	324.7064514160156	697.3195190429688	772.0653076171875	-57.03532791137695	1367.435668945312	769.173095703125	-121.3283996582031	1304.312744140625	761.4969482421875	-188.1485443115234	1045.170166015625	798.6817626953125	-106.0297241210938	1023.575317382812	756.4677734375	-172.3615875244141	863.02294921875	977.0947265625	-190.9275054931641	990.8286743164062	848.36181640625	-95.56533050537109	754.6655883789062	1089.007934570312	-102.1455459594727	821.5185546875	1063.3212890625	-157.7974548339844	797.9404296875	1030.180053710938	21.40923690795898	1591.962524414062	795.6226196289062	156.375	1568.373657226562	951.7649536132812	55.41825103759766	1570.427490234375	952.9994506835938	162.6548767089844	1590.4130859375	766.8513793945312	260.5817565917969	888.7255249023438	769.1209716796875	-78.22734069824219	897.443359375	765.0673828125	-35.80770111083984	926.6591186523438	870.123046875	202.3978729248047	926.2662963867188	891.5341186523438	272.2178344726562	459.7721862792969	956.9703369140625	283.21142578125	589.3876342773438	905.6732788085938	280.8619689941406	42.15937805175781	1056.365478515625	293.4865112304688	252.7571716308594	1004.074340820312	242.5470581054688	118.8010177612305	1251.831420898438	193.1636505126953	89.04648590087891	1195.86767578125	305.5796813964844	76.48285675048828	1174.979736328125	209.4588012695312	35.20404434204102	1031.373657226562	-18.3825740814209	432.5663146972656	790.272216796875	-63.91363525390625	687.1887817382812	833.5165405273438	33.28581237792969	55.85438537597656	621.4468383789062	7.080199718475342	312.2363586425781	769.3488159179688	105.0335235595703	40.57073211669922	806.1381225585938	141.0425109863281	36.65543365478516	745.739501953125	25.45920562744141	38.05396270751953	722.2319946289062	76.19894409179688	63.66916656494141	567.7970581054688	-103.2326431274414	895.72607421875	986.2301025390625	nan	nan	nan	nan	nan	nan	nan	nan	nan	nan	nan	nan	
391	3.9	34.31117630004883	947.4545288085938	691.04248046875	163.9541015625	943.8017578125	691.6193237304688	90.69148254394531	1006.23095703125	686.455810546875	100.8826675415039	1196.19970703125	917.2833862304688	88.92667388916016	1126.078979492188	674.8673706054688	107.139030456543	1375.087524414062	717.6967163085938	104.6777648925781	1321.81787109375	873.5140991210938	37.33832550048828	1235.136840820312	673.5750122070312	206.3229217529297	1338.087158203125	702.3515014648438	266.2753601074219	1354.034790039062	785.2791748046875	328.5022583007812	1234.620971679688	749.7109985351562	336.4165344238281	1032.689575195312	733.3898315429688	267.3437194824219	1026.933959960938	684.1373901367188	312.1572265625	775.9633178710938	791.4622192382812	358.5784606933594	774.385986328125	739.9600830078125	345.9869384765625	928.2732543945312	728.7159423828125	301.8550720214844	612.4974365234375	755.9486694335938	349.5854187011719	706.109130859375	721.5186157226562	326.2047729492188	696.0505981445312	781.3983154296875	-54.62461471557617	1366.268310546875	775.1150512695312	-118.7464752197266	1303.017333984375	767.1232299804688	-184.8130035400391	1043.715087890625	804.2037963867188	-102.6678924560547	1022.366760253906	762.0293579101562	-170.6095428466797	859.0146484375	980.2142944335938	-187.9813232421875	988.8078002929688	853.3130493164062	-94.61430358886719	748.5298461914062	1090.548217773438	-100.5249404907227	815.4747924804688	1065.546875	-156.8178100585938	793.1637573242188	1032.213989257812	23.69832038879395	1591.07861328125	801.2619018554688	158.1131744384766	1568.08740234375	957.978271484375	57.16164016723633	1570.192260742188	958.8395385742188	165.0906219482422	1589.314697265625	772.9949340820312	262.7868957519531	887.5545654296875	777.7028198242188	-76.07688903808594	896.8385009765625	771.63330078125	-34.27861785888672	925.8282470703125	877.0303344726562	203.8288726806641	925.2549438476562	899.783447265625	271.8246154785156	458.4953918457031	965.6250610351562	283.5981750488281	588.421875	914.8521118164062	278.83154296875	41.36985778808594	1062.97265625	291.9657592773438	251.1712188720703	1011.922973632812	239.0632476806641	115.7791442871094	1258.691284179688	190.1475067138672	86.43509674072266	1202.158081054688	302.6154479980469	74.27396392822266	1182.000122070312	207.6877746582031	34.45080184936523	1037.34326171875	-17.55767631530762	432.0024719238281	794.8529052734375	-62.71168518066406	686.4685668945312	839.2345581054688	33.7127799987793	56.90815353393555	621.7891845703125	7.473906517028809	311.823486328125	772.584228515625	105.0790252685547	40.54053497314453	806.3223266601562	141.1320953369141	37.01922607421875	745.935302734375	25.4666919708252	38.3151741027832	722.4649047851562	76.6588134765625	65.40261077880859	568.2280883789062	-101.2473068237305	891.0269165039062	989.8931274414062	nan	nan	nan	nan	nan	nan	nan	nan	nan	nan	nan	nan	
